<?xml version="1.0" standalone="no"?>
<!DOCTYPE svg PUBLIC "-//W3C//DTD SVG 1.1//EN"
"http://www.w3.org/Graphics/SVG/1.1/DTD/svg11.dtd">

<svg width="346" height="484" view_box="0 0 346 484"
xmlns="http://www.w3.org/2000/svg"
xmlns:link="http://www.w3.org/1999/xlink">\n\n<desc>Généré par Mocodo 2.3.7 le Sun, 08 Nov 2020 13:44:16</desc>

<rect id="frame" x="0" y="0" width="346" height="484" fill="#f7f7f7" stroke="none" stroke-width="0"/>

<!-- Entity OUVRAGE -->
<g id="entity-OUVRAGE">
	<g id="frame-OUVRAGE">
		<rect x="221" y="18" width="106" height="30" fill="#f4a582" stroke="#f4a582" stroke-width="0"/>
		<rect x="221" y="48.0" width="106" height="80" fill="#fddbc7" stroke="#fddbc7" stroke-width="0"/>
		<rect x="221" y="18" width="106" height="110" fill="none" stroke="#d6604d" stroke-width="1.5"/>
		<line x1="221" y1="48" x2="327" y2="48" stroke="#d6604d" stroke-width="1.5"/>
	</g>
	<text x="229" y="39.3" fill="#000000" font-family="Copperplate" font-size="18">OUVRAGE</text>
	<text x="229" y="65.1" fill="#000000" font-family="Gill Sans" font-size="15">Id</text>
	<line x1="229" y1="68" x2="242" y2="68" stroke="#000000" stroke-width="1"/>
	<text x="229" y="82.1" fill="#000000" font-family="Gill Sans" font-size="15">ISBN</text>
	<text x="229" y="99.1" fill="#000000" font-family="Gill Sans" font-size="15">Titre</text>
	<text x="229" y="116.0" fill="#000000" font-family="Gill Sans" font-size="15">Auteur</text>
</g>

<!-- Entity comprend -->
<g id="entity-comprend">
	<g id="frame-comprend">
		<rect x="9" y="161" width="194" height="30" fill="#f4a582" stroke="#f4a582" stroke-width="0"/>
		<rect x="9" y="191.0" width="194" height="132" fill="#fddbc7" stroke="#fddbc7" stroke-width="0"/>
		<rect x="9" y="161" width="194" height="162" fill="none" stroke="#d6604d" stroke-width="1.5"/>
		<line x1="9" y1="191" x2="203" y2="191" stroke="#d6604d" stroke-width="1.5"/>
	</g>
	<text x="61" y="182.3" fill="#000000" font-family="Copperplate" font-size="18">comprend</text>
	<text x="17" y="208.0" fill="#000000" font-family="Gill Sans" font-size="15">Id STOCK</text>
	<line x1="17" y1="211" x2="84" y2="211" stroke="#000000" stroke-width="1"/>
	<text x="17" y="225.1" fill="#000000" font-family="Gill Sans" font-size="15">Id EMPRUNTEMPRUNT : Id</text>
	<text x="17" y="242.1" fill="#000000" font-family="Gill Sans" font-size="15">Id_Stock</text>
	<text x="17" y="259.1" fill="#000000" font-family="Gill Sans" font-size="15">Id_Client</text>
	<text x="17" y="276.0" fill="#000000" font-family="Gill Sans" font-size="15">DateOUT</text>
	<text x="17" y="293.0" fill="#000000" font-family="Gill Sans" font-size="15">DateIN</text>
	<text x="17" y="310.0" fill="#000000" font-family="Gill Sans" font-size="15">Id client</text>
</g>

<!-- Entity CLIENT -->
<g id="entity-CLIENT">
	<g id="frame-CLIENT">
		<rect x="232" y="161" width="84" height="30" fill="#f4a582" stroke="#f4a582" stroke-width="0"/>
		<rect x="232" y="191.0" width="84" height="132" fill="#fddbc7" stroke="#fddbc7" stroke-width="0"/>
		<rect x="232" y="161" width="84" height="162" fill="none" stroke="#d6604d" stroke-width="1.5"/>
		<line x1="232" y1="191" x2="316" y2="191" stroke="#d6604d" stroke-width="1.5"/>
	</g>
	<text x="240" y="182.3" fill="#000000" font-family="Copperplate" font-size="18">CLIENT</text>
	<text x="240" y="208.0" fill="#000000" font-family="Gill Sans" font-size="15">Id</text>
	<line x1="240" y1="211" x2="253" y2="211" stroke="#000000" stroke-width="1"/>
	<text x="240" y="225.1" fill="#000000" font-family="Gill Sans" font-size="15">Nom</text>
	<text x="240" y="242.1" fill="#000000" font-family="Gill Sans" font-size="15">Prenom</text>
	<text x="240" y="259.1" fill="#000000" font-family="Gill Sans" font-size="15">Role</text>
	<text x="240" y="276.0" fill="#000000" font-family="Gill Sans" font-size="15">NumTel</text>
	<text x="240" y="293.0" fill="#000000" font-family="Gill Sans" font-size="15">Email</text>
	<text x="240" y="310.0" fill="#000000" font-family="Gill Sans" font-size="15">Adresse</text>
</g>

<!-- Entity COMMANDE -->
<g id="entity-COMMANDE">
	<g id="frame-COMMANDE">
		<rect x="211" y="347" width="126" height="30" fill="#f4a582" stroke="#f4a582" stroke-width="0"/>
		<rect x="211" y="377.0" width="126" height="98" fill="#fddbc7" stroke="#fddbc7" stroke-width="0"/>
		<rect x="211" y="347" width="126" height="128" fill="none" stroke="#d6604d" stroke-width="1.5"/>
		<line x1="211" y1="377" x2="337" y2="377" stroke="#d6604d" stroke-width="1.5"/>
	</g>
	<text x="219" y="368.3" fill="#000000" font-family="Copperplate" font-size="18">COMMANDE</text>
	<text x="219" y="394.1" fill="#000000" font-family="Gill Sans" font-size="15">Id</text>
	<line x1="219" y1="397" x2="232" y2="397" stroke="#000000" stroke-width="1"/>
	<text x="219" y="411.1" fill="#000000" font-family="Gill Sans" font-size="15">Id_client</text>
	<text x="219" y="428.1" fill="#000000" font-family="Gill Sans" font-size="15">Prix</text>
	<text x="219" y="445.0" fill="#000000" font-family="Gill Sans" font-size="15">Reference</text>
	<text x="219" y="462.0" fill="#000000" font-family="Gill Sans" font-size="15">DateCom</text>
</g>

<!-- Entity passe -->
<g id="entity-passe">
	<g id="frame-passe">
		<rect x="45" y="373" width="122" height="30" fill="#f4a582" stroke="#f4a582" stroke-width="0"/>
		<rect x="45" y="403.0" width="122" height="46" fill="#fddbc7" stroke="#fddbc7" stroke-width="0"/>
		<rect x="45" y="373" width="122" height="76" fill="none" stroke="#d6604d" stroke-width="1.5"/>
		<line x1="45" y1="403" x2="167" y2="403" stroke="#d6604d" stroke-width="1.5"/>
	</g>
	<text x="80" y="394.3" fill="#000000" font-family="Copperplate" font-size="18">passe</text>
	<text x="53" y="420.1" fill="#000000" font-family="Gill Sans" font-size="15">Id CLIENT</text>
	<line x1="53" y1="423" x2="121" y2="423" stroke="#000000" stroke-width="1"/>
	<text x="53" y="437.1" fill="#000000" font-family="Gill Sans" font-size="15">Id COMMANDE</text>
</g>

<!-- Entity STOCK -->
<g id="entity-STOCK">
	<g id="frame-STOCK">
		<rect x="54" y="9" width="104" height="30" fill="#f4a582" stroke="#f4a582" stroke-width="0"/>
		<rect x="54" y="39.0" width="104" height="98" fill="#fddbc7" stroke="#fddbc7" stroke-width="0"/>
		<rect x="54" y="9" width="104" height="128" fill="none" stroke="#d6604d" stroke-width="1.5"/>
		<line x1="54" y1="39" x2="158" y2="39" stroke="#d6604d" stroke-width="1.5"/>
	</g>
	<text x="74" y="30.3" fill="#000000" font-family="Copperplate" font-size="18">STOCK</text>
	<text x="62" y="56.1" fill="#000000" font-family="Gill Sans" font-size="15">Id</text>
	<line x1="62" y1="59" x2="75" y2="59" stroke="#000000" stroke-width="1"/>
	<text x="62" y="73.1" fill="#000000" font-family="Gill Sans" font-size="15">Id_Ouvrage</text>
	<text x="62" y="90.1" fill="#000000" font-family="Gill Sans" font-size="15">Etat</text>
	<text x="62" y="107.0" fill="#000000" font-family="Gill Sans" font-size="15">Status</text>
	<text x="62" y="124.0" fill="#000000" font-family="Gill Sans" font-size="15">Id OUVRAGE</text>
</g>
</svg>