<?xml version="1.0" standalone="no"?>
<!DOCTYPE svg PUBLIC "-//W3C//DTD SVG 1.1//EN"
"http://www.w3.org/Graphics/SVG/1.1/DTD/svg11.dtd">

<svg width="539" height="432" view_box="0 0 539 432"
xmlns="http://www.w3.org/2000/svg"
xmlns:link="http://www.w3.org/1999/xlink">\n\n<desc>Généré par Mocodo 2.3.7 le Sun, 08 Nov 2020 12:34:51</desc>

<rect id="frame" x="0" y="0" width="539" height="432" fill="#f7f7f7" stroke="none" stroke-width="0"/>

<!-- Entity contient -->
<g id="entity-contient">
	<g id="frame-contient">
		<rect x="147" y="26" width="114" height="30" fill="#f4a582" stroke="#f4a582" stroke-width="0"/>
		<rect x="147" y="56.0" width="114" height="46" fill="#fddbc7" stroke="#fddbc7" stroke-width="0"/>
		<rect x="147" y="26" width="114" height="76" fill="none" stroke="#d6604d" stroke-width="1.5"/>
		<line x1="147" y1="56" x2="261" y2="56" stroke="#d6604d" stroke-width="1.5"/>
	</g>
	<text x="164" y="47.3" fill="#000000" font-family="Copperplate" font-size="18">contient</text>
	<text x="155" y="73.1" fill="#000000" font-family="Gill Sans" font-size="15">#Id STOCK</text>
	<line x1="155" y1="76" x2="231" y2="76" stroke="#000000" stroke-width="1"/>
	<text x="155" y="90.1" fill="#000000" font-family="Gill Sans" font-size="15">#Id OUVRAGE</text>
</g>

<!-- Entity fait -->
<g id="entity-fait">
	<g id="frame-fait">
		<rect x="305" y="152" width="112" height="30" fill="#f4a582" stroke="#f4a582" stroke-width="0"/>
		<rect x="305" y="182.0" width="112" height="46" fill="#fddbc7" stroke="#fddbc7" stroke-width="0"/>
		<rect x="305" y="152" width="112" height="76" fill="none" stroke="#d6604d" stroke-width="1.5"/>
		<line x1="305" y1="182" x2="417" y2="182" stroke="#d6604d" stroke-width="1.5"/>
	</g>
	<text x="343" y="173.3" fill="#000000" font-family="Copperplate" font-size="18">fait</text>
	<text x="313" y="199.1" fill="#000000" font-family="Gill Sans" font-size="15">#Id EMPRUNT</text>
	<line x1="313" y1="202" x2="408" y2="202" stroke="#000000" stroke-width="1"/>
	<text x="313" y="216.1" fill="#000000" font-family="Gill Sans" font-size="15">#Id CLIENT</text>
</g>

<!-- Entity OUVRAGE -->
<g id="entity-OUVRAGE">
	<g id="frame-OUVRAGE">
		<rect x="308" y="9" width="106" height="30" fill="#f4a582" stroke="#f4a582" stroke-width="0"/>
		<rect x="308" y="39.0" width="106" height="80" fill="#fddbc7" stroke="#fddbc7" stroke-width="0"/>
		<rect x="308" y="9" width="106" height="110" fill="none" stroke="#d6604d" stroke-width="1.5"/>
		<line x1="308" y1="39" x2="414" y2="39" stroke="#d6604d" stroke-width="1.5"/>
	</g>
	<text x="316" y="30.3" fill="#000000" font-family="Copperplate" font-size="18">OUVRAGE</text>
	<text x="316" y="56.1" fill="#000000" font-family="Gill Sans" font-size="15">Id</text>
	<line x1="316" y1="59" x2="329" y2="59" stroke="#000000" stroke-width="1"/>
	<text x="316" y="73.1" fill="#000000" font-family="Gill Sans" font-size="15">ISBN</text>
	<text x="316" y="90.1" fill="#000000" font-family="Gill Sans" font-size="15">Titre</text>
	<text x="316" y="107.0" fill="#000000" font-family="Gill Sans" font-size="15">Auteur</text>
</g>

<!-- Entity comprend -->
<g id="entity-comprend">
	<g id="frame-comprend">
		<rect x="9" y="152" width="112" height="30" fill="#f4a582" stroke="#f4a582" stroke-width="0"/>
		<rect x="9" y="182.0" width="112" height="46" fill="#fddbc7" stroke="#fddbc7" stroke-width="0"/>
		<rect x="9" y="152" width="112" height="76" fill="none" stroke="#d6604d" stroke-width="1.5"/>
		<line x1="9" y1="182" x2="121" y2="182" stroke="#d6604d" stroke-width="1.5"/>
	</g>
	<text x="20" y="173.3" fill="#000000" font-family="Copperplate" font-size="18">comprend</text>
	<text x="17" y="199.1" fill="#000000" font-family="Gill Sans" font-size="15">#Id STOCK</text>
	<line x1="17" y1="202" x2="93" y2="202" stroke="#000000" stroke-width="1"/>
	<text x="17" y="216.1" fill="#000000" font-family="Gill Sans" font-size="15">#Id EMPRUNT</text>
</g>

<!-- Entity EMPRUNT -->
<g id="entity-EMPRUNT">
	<g id="frame-EMPRUNT">
		<rect x="150" y="126" width="108" height="30" fill="#f4a582" stroke="#f4a582" stroke-width="0"/>
		<rect x="150" y="156.0" width="108" height="98" fill="#fddbc7" stroke="#fddbc7" stroke-width="0"/>
		<rect x="150" y="126" width="108" height="128" fill="none" stroke="#d6604d" stroke-width="1.5"/>
		<line x1="150" y1="156" x2="258" y2="156" stroke="#d6604d" stroke-width="1.5"/>
	</g>
	<text x="158" y="147.3" fill="#000000" font-family="Copperplate" font-size="18">EMPRUNT</text>
	<text x="158" y="173.1" fill="#000000" font-family="Gill Sans" font-size="15">Id</text>
	<line x1="158" y1="176" x2="171" y2="176" stroke="#000000" stroke-width="1"/>
	<text x="158" y="190.1" fill="#000000" font-family="Gill Sans" font-size="15">Id_Stock</text>
	<text x="158" y="207.1" fill="#000000" font-family="Gill Sans" font-size="15">Id_Client</text>
	<text x="158" y="224.0" fill="#000000" font-family="Gill Sans" font-size="15">DateOUT</text>
	<text x="158" y="241.0" fill="#000000" font-family="Gill Sans" font-size="15">DateIN</text>
</g>

<!-- Entity CLIENT -->
<g id="entity-CLIENT">
	<g id="frame-CLIENT">
		<rect x="446" y="109" width="84" height="30" fill="#f4a582" stroke="#f4a582" stroke-width="0"/>
		<rect x="446" y="139.0" width="84" height="132" fill="#fddbc7" stroke="#fddbc7" stroke-width="0"/>
		<rect x="446" y="109" width="84" height="162" fill="none" stroke="#d6604d" stroke-width="1.5"/>
		<line x1="446" y1="139" x2="530" y2="139" stroke="#d6604d" stroke-width="1.5"/>
	</g>
	<text x="454" y="130.3" fill="#000000" font-family="Copperplate" font-size="18">CLIENT</text>
	<text x="454" y="156.0" fill="#000000" font-family="Gill Sans" font-size="15">Id</text>
	<line x1="454" y1="159" x2="467" y2="159" stroke="#000000" stroke-width="1"/>
	<text x="454" y="173.1" fill="#000000" font-family="Gill Sans" font-size="15">Nom</text>
	<text x="454" y="190.1" fill="#000000" font-family="Gill Sans" font-size="15">Prenom</text>
	<text x="454" y="207.1" fill="#000000" font-family="Gill Sans" font-size="15">Role</text>
	<text x="454" y="224.0" fill="#000000" font-family="Gill Sans" font-size="15">NumTel</text>
	<text x="454" y="241.0" fill="#000000" font-family="Gill Sans" font-size="15">Email</text>
	<text x="454" y="258.0" fill="#000000" font-family="Gill Sans" font-size="15">Adresse</text>
</g>

<!-- Entity COMMANDE -->
<g id="entity-COMMANDE">
	<g id="frame-COMMANDE">
		<rect x="298" y="295" width="126" height="30" fill="#f4a582" stroke="#f4a582" stroke-width="0"/>
		<rect x="298" y="325.0" width="126" height="98" fill="#fddbc7" stroke="#fddbc7" stroke-width="0"/>
		<rect x="298" y="295" width="126" height="128" fill="none" stroke="#d6604d" stroke-width="1.5"/>
		<line x1="298" y1="325" x2="424" y2="325" stroke="#d6604d" stroke-width="1.5"/>
	</g>
	<text x="306" y="316.3" fill="#000000" font-family="Copperplate" font-size="18">COMMANDE</text>
	<text x="306" y="342.1" fill="#000000" font-family="Gill Sans" font-size="15">Id</text>
	<line x1="306" y1="345" x2="319" y2="345" stroke="#000000" stroke-width="1"/>
	<text x="306" y="359.1" fill="#000000" font-family="Gill Sans" font-size="15">Id_Client</text>
	<text x="306" y="376.1" fill="#000000" font-family="Gill Sans" font-size="15">Prix</text>
	<text x="306" y="393.0" fill="#000000" font-family="Gill Sans" font-size="15">Reference</text>
	<text x="306" y="410.0" fill="#000000" font-family="Gill Sans" font-size="15">DateCom</text>
</g>

<!-- Entity Passe -->
<g id="entity-Passe">
	<g id="frame-Passe">
		<rect x="139" y="321" width="130" height="30" fill="#f4a582" stroke="#f4a582" stroke-width="0"/>
		<rect x="139" y="351.0" width="130" height="46" fill="#fddbc7" stroke="#fddbc7" stroke-width="0"/>
		<rect x="139" y="321" width="130" height="76" fill="none" stroke="#d6604d" stroke-width="1.5"/>
		<line x1="139" y1="351" x2="269" y2="351" stroke="#d6604d" stroke-width="1.5"/>
	</g>
	<text x="177" y="342.3" fill="#000000" font-family="Copperplate" font-size="18">Passe</text>
	<text x="147" y="368.1" fill="#000000" font-family="Gill Sans" font-size="15">#Id CLIENT</text>
	<line x1="147" y1="371" x2="224" y2="371" stroke="#000000" stroke-width="1"/>
	<text x="147" y="385.1" fill="#000000" font-family="Gill Sans" font-size="15">#Id COMMANDE</text>
</g>

<!-- Entity STOCK -->
<g id="entity-STOCK">
	<g id="frame-STOCK">
		<rect x="20" y="9" width="90" height="30" fill="#f4a582" stroke="#f4a582" stroke-width="0"/>
		<rect x="20" y="39.0" width="90" height="80" fill="#fddbc7" stroke="#fddbc7" stroke-width="0"/>
		<rect x="20" y="9" width="90" height="110" fill="none" stroke="#d6604d" stroke-width="1.5"/>
		<line x1="20" y1="39" x2="110" y2="39" stroke="#d6604d" stroke-width="1.5"/>
	</g>
	<text x="33" y="30.3" fill="#000000" font-family="Copperplate" font-size="18">STOCK</text>
	<text x="28" y="56.1" fill="#000000" font-family="Gill Sans" font-size="15">Id</text>
	<line x1="28" y1="59" x2="41" y2="59" stroke="#000000" stroke-width="1"/>
	<text x="28" y="73.1" fill="#000000" font-family="Gill Sans" font-size="15">Id_Ouvrage</text>
	<text x="28" y="90.1" fill="#000000" font-family="Gill Sans" font-size="15">Etat</text>
	<text x="28" y="107.0" fill="#000000" font-family="Gill Sans" font-size="15">Status</text>
</g>
</svg>